<svg width="1000" height="1000" viewBox="0 0 1000 1000" xmlns="http://www.w3.org/2000/svg"><defs/><path fill="#0f3877" transform="matrix(0.422650371234486 0 0 0.422650371234486 41.915583048376305 -3.6114380232663343)" d="M 490.03008876327 1352.90565048318 L 417.43008876327 1352.90565048318 C 412.83008876327 1352.90565048318 409.13008876327 1356.60565048318 409.13008876327 1361.20565048318 C 409.13008876327 1365.80565048318 412.83008876327 1369.50565048318 417.43008876327 1369.50565048318 L 490.03008876327 1369.50565048318 C 494.63008876327 1369.50565048318 498.33008876327 1365.80565048318 498.33008876327 1361.20565048318 C 498.23008876327 1356.60565048318 494.53008876327 1352.90565048318 490.03008876327 1352.90565048318 Z"/><path fill="#0f3877" transform="matrix(0.422650371234486 0 0 0.422650371234486 41.915583048376305 -3.6114380232663343)" d="M 478.73008876327 1379.70565048318 L 428.63008876327 1379.70565048318 C 424.53008876327 1379.70565048318 421.23008876327 1383.00565048318 421.23008876327 1387.10565048318 C 421.23008876327 1391.20565048318 424.53008876327 1394.50565048318 428.63008876327 1394.50565048318 L 430.13008876327 1394.50565048318 C 430.23008876327 1394.60565048318 430.33008876327 1394.80565048318 430.43008876327 1394.90565048318 L 435.23008876327 1401.60565048318 C 437.03008876327 1404.10565048318 441.13008876327 1406.20565048318 444.23008876327 1406.20565048318 L 463.23008876327 1406.20565048318 C 466.33008876327 1406.20565048318 470.43008876327 1404.10565048318 472.23008876327 1401.60565048318 L 477.03008876327 1394.90565048318 C 477.13008876327 1394.80565048318 477.23008876327 1394.60565048318 477.33008876327 1394.50565048318 L 478.83008876327 1394.50565048318 C 482.93008876327 1394.50565048318 486.23008876327 1391.20565048318 486.23008876327 1387.10565048318 C 486.13008876327 1383.00565048318 482.83008876327 1379.70565048318 478.73008876327 1379.70565048318 Z"/><path fill="#0f3877" transform="matrix(0.422650371234486 0 0 0.422650371234486 41.915583048376305 -3.6114380232663343)" d="M 496.43008876327 1325.30565048318 L 410.93008876327 1325.30565048318 C 406.33008876327 1325.30565048318 402.63008876327 1329.00565048318 402.63008876327 1333.60565048318 C 402.63008876327 1338.20565048318 406.33008876327 1341.90565048318 410.93008876327 1341.90565048318 L 496.43008876327 1341.90565048318 C 501.03008876327 1341.90565048318 504.73008876327 1338.20565048318 504.73008876327 1333.60565048318 C 504.73008876327 1329.00565048318 501.03008876327 1325.30565048318 496.43008876327 1325.30565048318 Z"/><path fill="#32be16" transform="matrix(0.422650371234486 0 0 0.422650371234486 41.915583048376305 -3.6114380232663343)" d="M 328.63008876327 1054.50565048318 L 369.83008876327 1054.50565048318 L 369.83008876327 1095.70565048318 L 328.63008876327 1095.70565048318 Z"/><path fill="#32be16" transform="matrix(0.422650371234486 0 0 0.422650371234486 41.915583048376305 -3.6114380232663343)" d="M 263.83008876327 1040.60565048318 L 296.33008876327 1040.60565048318 L 296.33008876327 1073.10565048318 L 263.83008876327 1073.10565048318 Z"/><path fill="#32be16" transform="matrix(0.422650371234486 0 0 0.422650371234486 41.915583048376305 -3.6114380232663343)" d="M 255.73008876327 992.80565048318 L 271.83008876327 992.80565048318 L 271.83008876327 1008.90565048318 L 255.73008876327 1008.90565048318 Z"/><path fill="#32be16" transform="matrix(0.422650371234486 0 0 0.422650371234486 41.915583048376305 -3.6114380232663343)" d="M 312.83008876327 976.90565048318 L 336.83008876327 976.90565048318 L 336.83008876327 1000.90565048318 L 312.83008876327 1000.90565048318 Z"/><path fill="#32be16" transform="matrix(0.422650371234486 0 0 0.422650371234486 41.915583048376305 -3.6114380232663343)" d="M 485.93008876327 1106.40565048318 C 485.93008876327 1108.33864710759 484.36308538768 1109.90565048318 482.43008876327 1109.90565048318 C 480.49709213886 1109.90565048318 478.93008876327 1108.33864710759 478.93008876327 1106.40565048318 C 478.93008876327 1104.47265385877 480.49709213886 1102.90565048318 482.43008876327 1102.90565048318 C 484.36308538768 1102.90565048318 485.93008876327 1104.47265385877 485.93008876327 1106.40565048318 Z"/><path fill="#32be16" transform="matrix(0.422650371234486 0 0 0.422650371234486 41.915583048376305 -3.6114380232663343)" d="M 479.33008876327 1072.80565048318 C 477.93008876327 1074.20565048318 477.93008876327 1076.40565048318 479.33008876327 1077.80565048318 C 480.73008876327 1079.20565048318 482.93008876327 1079.20565048318 484.33008876327 1077.80565048318 C 485.73008876327 1076.40565048318 485.73008876327 1074.20565048318 484.33008876327 1072.80565048318 C 482.93008876327 1071.40565048318 480.73008876327 1071.40565048318 479.33008876327 1072.80565048318 Z"/><path fill="#32be16" transform="matrix(0.422650371234486 0 0 0.422650371234486 41.915583048376305 -3.6114380232663343)" d="M 444.33008876327 1095.40565048318 C 444.33008876327 1097.33864710759 442.76308538768 1098.90565048318 440.83008876327 1098.90565048318 C 438.89709213886 1098.90565048318 437.33008876327 1097.33864710759 437.33008876327 1095.40565048318 C 437.33008876327 1093.47265385877 438.89709213886 1091.90565048318 440.83008876327 1091.90565048318 C 442.76308538768 1091.90565048318 444.33008876327 1093.47265385877 444.33008876327 1095.40565048318 Z"/><path fill="#32be16" transform="matrix(0.422650371234486 0 0 0.422650371234486 41.915583048376305 -3.6114380232663343)" d="M 409.43008876327 1191.80565048318 C 405.63008876327 1193.40565048318 401.23008876327 1192.60565048318 398.23008876327 1189.60565048318 C 394.23008876327 1185.60565048318 394.23008876327 1179.20565048318 398.23008876327 1175.20565048318 C 402.23008876327 1171.20565048318 408.63008876327 1171.20565048318 412.63008876327 1175.20565048318 C 415.63008876327 1178.20565048318 416.43008876327 1182.60565048318 414.83008876327 1186.40565048318 L 513.33008876327 1285.00565048318 C 518.33008876327 1272.40565048318 524.13008876327 1261.50565048318 530.23008876327 1251.50565048318 L 474.83008876327 1196.00565048318 L 459.53008876327 1211.30565048318 L 440.43008876327 1192.20565048318 C 436.63008876327 1193.80565048318 432.13008876327 1193.00565048318 429.23008876327 1190.00565048318 C 425.23008876327 1186.00565048318 425.23008876327 1179.60565048318 429.23008876327 1175.60565048318 C 433.23008876327 1171.60565048318 439.63008876327 1171.60565048318 443.63008876327 1175.60565048318 C 446.63008876327 1178.60565048318 447.43008876327 1183.00565048318 445.83008876327 1186.80565048318 L 459.53008876327 1200.50565048318 L 474.83008876327 1185.20565048318 L 531.73008876327 1242.10565048318 L 531.73008876327 1242.10565048318 L 534.43008876327 1244.80565048318 C 537.03008876327 1240.70565048318 539.63008876327 1236.70565048318 542.23008876327 1232.80565048318 L 460.63008876327 1151.30565048318 C 456.83008876327 1152.90565048318 452.43008876327 1152.10565048318 449.43008876327 1149.10565048318 C 445.43008876327 1145.10565048318 445.43008876327 1138.70565048318 449.43008876327 1134.70565048318 C 453.43008876327 1130.70565048318 459.83008876327 1130.70565048318 463.83008876327 1134.70565048318 C 466.83008876327 1137.70565048318 467.63008876327 1142.10565048318 466.03008876327 1145.90565048318 L 470.93008876327 1150.80565048318 L 480.83008876327 1140.90565048318 L 444.83008876327 1104.80565048318 C 441.03008876327 1106.40565048318 436.63008876327 1105.60565048318 433.63008876327 1102.60565048318 C 429.63008876327 1098.60565048318 429.63008876327 1092.20565048318 433.63008876327 1088.20565048318 C 437.63008876327 1084.20565048318 444.03008876327 1084.20565048318 448.03008876327 1088.20565048318 C 451.03008876327 1091.20565048318 451.83008876327 1095.60565048318 450.23008876327 1099.40565048318 L 491.73008876327 1140.90565048318 L 476.43008876327 1156.20565048318 L 546.63008876327 1226.40565048318 C 549.33008876327 1222.40565048318 551.93008876327 1218.40565048318 554.43008876327 1214.40565048318 L 494.63008876327 1154.60565048318 L 509.93008876327 1139.30565048318 L 486.53008876327 1115.90565048318 C 482.73008876327 1117.50565048318 478.33008876327 1116.70565048318 475.33008876327 1113.70565048318 C 471.33008876327 1109.70565048318 471.33008876327 1103.30565048318 475.33008876327 1099.30565048318 C 479.33008876327 1095.30565048318 485.73008876327 1095.30565048318 489.73008876327 1099.30565048318 C 492.73008876327 1102.30565048318 493.53008876327 1106.70565048318 491.93008876327 1110.50565048318 L 520.73008876327 1139.30565048318 L 505.43008876327 1154.60565048318 L 558.43008876327 1207.60565048318 C 560.93008876327 1203.40565048318 563.23008876327 1199.10565048318 565.23008876327 1194.60565048318 L 522.23008876327 1151.60565048318 L 537.53008876327 1136.30565048318 L 485.83008876327 1084.60565048318 C 482.03008876327 1086.20565048318 477.63008876327 1085.40565048318 474.63008876327 1082.40565048318 C 470.63008876327 1078.40565048318 470.63008876327 1072.00565048318 474.63008876327 1068.00565048318 C 478.63008876327 1064.00565048318 485.03008876327 1064.00565048318 489.03008876327 1068.00565048318 C 492.03008876327 1071.00565048318 492.83008876327 1075.40565048318 491.23008876327 1079.20565048318 L 548.33008876327 1136.30565048318 L 533.03008876327 1151.60565048318 L 568.43008876327 1187.00565048318 C 572.53008876327 1176.20565048318 575.03008876327 1164.50565048318 575.03008876327 1150.80565048318 C 575.03008876327 1078.10565048318 516.93008876327 1029.50565048318 453.73008876327 1029.50565048318 C 428.63008876327 1029.50565048318 404.43008876327 1037.20565048318 384.23008876327 1050.90565048318 L 384.23008876327 1110.20565048318 L 338.93008876327 1110.20565048318 C 334.63008876327 1122.60565048318 332.33008876327 1136.30565048318 332.33008876327 1150.80565048318 C 332.33008876327 1207.90565048318 376.03008876327 1231.20565048318 397.33008876327 1293.80565048318 C 399.13008876327 1299.20565048318 400.83008876327 1304.90565048318 402.33008876327 1311.00565048318 C 402.73008876327 1312.60565048318 404.33008876327 1313.90565048318 405.93008876327 1313.90565048318 L 501.53008876327 1313.90565048318 C 503.13008876327 1313.90565048318 504.73008876327 1312.60565048318 505.13008876327 1311.00565048318 C 506.63008876327 1304.60565048318 508.43008876327 1298.60565048318 510.43008876327 1292.90565048318 L 409.43008876327 1191.80565048318 Z"/><path fill="#32be16" transform="matrix(0.422650371234486 0 0 0.422650371234486 41.915583048376305 -3.6114380232663343)" d="M 403.03008876327 1179.90565048318 C 401.63008876327 1181.30565048318 401.63008876327 1183.50565048318 403.03008876327 1184.90565048318 C 404.43008876327 1186.30565048318 406.63008876327 1186.30565048318 408.03008876327 1184.90565048318 C 409.43008876327 1183.50565048318 409.43008876327 1181.30565048318 408.03008876327 1179.90565048318 C 406.63008876327 1178.60565048318 404.33008876327 1178.60565048318 403.03008876327 1179.90565048318 Z"/><path fill="#32be16" transform="matrix(0.422650371234486 0 0 0.422650371234486 41.915583048376305 -3.6114380232663343)" d="M 433.93008876327 1180.30565048318 C 432.53008876327 1181.70565048318 432.53008876327 1183.90565048318 433.93008876327 1185.30565048318 C 435.33008876327 1186.70565048318 437.53008876327 1186.70565048318 438.93008876327 1185.30565048318 C 440.33008876327 1183.90565048318 440.33008876327 1181.70565048318 438.93008876327 1180.30565048318 C 437.53008876327 1178.90565048318 435.33008876327 1178.90565048318 433.93008876327 1180.30565048318 Z"/><path fill="#32be16" transform="matrix(0.422650371234486 0 0 0.422650371234486 41.915583048376305 -3.6114380232663343)" d="M 460.23008876327 1141.90565048318 C 460.23008876327 1143.83864710759 458.66308538768 1145.40565048318 456.73008876327 1145.40565048318 C 454.79709213886 1145.40565048318 453.23008876327 1143.83864710759 453.23008876327 1141.90565048318 C 453.23008876327 1139.97265385877 454.79709213886 1138.40565048318 456.73008876327 1138.40565048318 C 458.66308538768 1138.40565048318 460.23008876327 1139.97265385877 460.23008876327 1141.90565048318 Z"/><path id="text" fill="#0f3877" transform="matrix(0.6768270828520024 0 0 0.6768270828520024 223.8177719902707 31.823118828927544)" d="M 166.91712600898 606.49103093765 C 171.30112600898 608.47503093765 174.67712600898 611.29103093765 177.04512600898 614.93903093765 C 179.41312600898 618.58703093765 180.59712600898 622.90703093765 180.59712600898 627.89903093765 C 180.59712600898 632.82703093765 179.41312600898 637.13103093765 177.04512600898 640.81103093765 C 174.67712600898 644.49103093765 171.30112600898 647.30703093765 166.91712600898 649.25903093765 C 162.53312600898 651.21103093765 157.36512600898 652.18703093765 151.41312600898 652.18703093765 L 137.87712600898 652.18703093765 L 137.87712600898 670.71503093765 L 122.32512600898 670.71503093765 L 122.32512600898 603.51503093765 L 151.41312600898 603.51503093765 C 157.36512600898 603.51503093765 162.53312600898 604.50703093765 166.91712600898 606.49103093765 Z M 161.20512600898 636.49103093765 C 163.63712600898 634.47503093765 164.85312600898 631.61103093765 164.85312600898 627.89903093765 C 164.85312600898 624.12303093765 163.63712600898 621.22703093765 161.20512600898 619.21103093765 C 158.77312600898 617.19503093765 155.22112600898 616.18703093765 150.54912600898 616.18703093765 L 137.87712600898 616.18703093765 L 137.87712600898 639.51503093765 L 150.54912600898 639.51503093765 C 155.22112600898 639.51503093765 158.77312600898 638.50703093765 161.20512600898 636.49103093765 Z M 234.45312600898 670.71503093765 L 221.49312600898 651.99503093765 L 220.72512600898 651.99503093765 L 207.18912600898 651.99503093765 L 207.18912600898 670.71503093765 L 191.63712600898 670.71503093765 L 191.63712600898 603.51503093765 L 220.72512600898 603.51503093765 C 226.67712600898 603.51503093765 231.84512600898 604.50703093765 236.22912600898 606.49103093765 C 240.61312600898 608.47503093765 243.98912600898 611.29103093765 246.35712600898 614.93903093765 C 248.72512600898 618.58703093765 249.90912600898 622.90703093765 249.90912600898 627.89903093765 C 249.90912600898 632.89103093765 248.70912600898 637.19503093765 246.30912600898 640.81103093765 C 243.90912600898 644.42703093765 240.50112600898 647.19503093765 236.08512600898 649.11503093765 L 251.15712600898 670.71503093765 L 234.45312600898 670.71503093765 Z M 230.51712600898 619.21103093765 C 228.08512600898 617.19503093765 224.53312600898 616.18703093765 219.86112600898 616.18703093765 L 207.18912600898 616.18703093765 L 207.18912600898 639.61103093765 L 219.86112600898 639.61103093765 C 224.53312600898 639.61103093765 228.08512600898 638.58703093765 230.51712600898 636.53903093765 C 232.94912600898 634.49103093765 234.16512600898 631.61103093765 234.16512600898 627.89903093765 C 234.16512600898 624.12303093765 232.94912600898 621.22703093765 230.51712600898 619.21103093765 Z M 275.87712600898 667.35503093765 C 270.27712600898 664.34703093765 265.89312600898 660.20303093765 262.72512600898 654.92303093765 C 259.55712600898 649.64303093765 257.97312600898 643.70703093765 257.97312600898 637.11503093765 C 257.97312600898 630.52303093765 259.55712600898 624.58703093765 262.72512600898 619.30703093765 C 265.89312600898 614.02703093765 270.27712600898 609.88303093765 275.87712600898 606.87503093765 C 281.47712600898 603.86703093765 287.76512600898 602.36303093765 294.74112600898 602.36303093765 C 301.71712600898 602.36303093765 307.98912600898 603.86703093765 313.55712600898 606.87503093765 C 319.12512600898 609.88303093765 323.50912600898 614.02703093765 326.70912600898 619.30703093765 C 329.90912600898 624.58703093765 331.50912600898 630.52303093765 331.50912600898 637.11503093765 C 331.50912600898 643.70703093765 329.90912600898 649.64303093765 326.70912600898 654.92303093765 C 323.50912600898 660.20303093765 319.12512600898 664.34703093765 313.55712600898 667.35503093765 C 307.98912600898 670.36303093765 301.71712600898 671.86703093765 294.74112600898 671.86703093765 C 287.76512600898 671.86703093765 281.47712600898 670.36303093765 275.87712600898 667.35503093765 Z M 305.49312600898 655.88303093765 C 308.69312600898 654.05903093765 311.20512600898 651.51503093765 313.02912600898 648.25103093765 C 314.85312600898 644.98703093765 315.76512600898 641.27503093765 315.76512600898 637.11503093765 C 315.76512600898 632.95503093765 314.85312600898 629.24303093765 313.02912600898 625.97903093765 C 311.20512600898 622.71503093765 308.69312600898 620.17103093765 305.49312600898 618.34703093765 C 302.29312600898 616.52303093765 298.70912600898 615.61103093765 294.74112600898 615.61103093765 C 290.77312600898 615.61103093765 287.18912600898 616.52303093765 283.98912600898 618.34703093765 C 280.78912600898 620.17103093765 278.27712600898 622.71503093765 276.45312600898 625.97903093765 C 274.62912600898 629.24303093765 273.71712600898 632.95503093765 273.71712600898 637.11503093765 C 273.71712600898 641.27503093765 274.62912600898 644.98703093765 276.45312600898 648.25103093765 C 278.27712600898 651.51503093765 280.78912600898 654.05903093765 283.98912600898 655.88303093765 C 287.18912600898 657.70703093765 290.77312600898 658.61903093765 294.74112600898 658.61903093765 C 298.70912600898 658.61903093765 302.29312600898 657.70703093765 305.49312600898 655.88303093765 Z M 395.25312600898 658.23503093765 L 395.25312600898 670.71503093765 L 343.22112600898 670.71503093765 L 343.22112600898 603.51503093765 L 394.00512600898 603.51503093765 L 394.00512600898 615.99503093765 L 358.67712600898 615.99503093765 L 358.67712600898 630.58703093765 L 389.87712600898 630.58703093765 L 389.87712600898 642.68303093765 L 358.67712600898 642.68303093765 L 358.67712600898 658.23503093765 L 395.25312600898 658.23503093765 Z M 407.63712600898 603.51503093765 L 423.18912600898 603.51503093765 L 423.18912600898 658.04303093765 L 456.88512600898 658.04303093765 L 456.88512600898 670.71503093765 L 407.63712600898 670.71503093765 L 407.63712600898 603.51503093765 Z M 473.30112600898 616.18703093765 L 451.79712600898 616.18703093765 L 451.79712600898 603.51503093765 L 510.35712600898 603.51503093765 L 510.35712600898 616.18703093765 L 488.85312600898 616.18703093765 L 488.85312600898 670.71503093765 L 473.30112600898 670.71503093765 L 473.30112600898 616.18703093765 Z M 570.74112600898 658.23503093765 L 570.74112600898 670.71503093765 L 518.70912600898 670.71503093765 L 518.70912600898 603.51503093765 L 569.49312600898 603.51503093765 L 569.49312600898 615.99503093765 L 534.16512600898 615.99503093765 L 534.16512600898 630.58703093765 L 565.36512600898 630.58703093765 L 565.36512600898 642.68303093765 L 534.16512600898 642.68303093765 L 534.16512600898 658.23503093765 L 570.74112600898 658.23503093765 Z M 596.51712600898 667.40303093765 C 590.98112600898 664.42703093765 586.62912600898 660.29903093765 583.46112600898 655.01903093765 C 580.29312600898 649.73903093765 578.70912600898 643.77103093765 578.70912600898 637.11503093765 C 578.70912600898 630.45903093765 580.29312600898 624.49103093765 583.46112600898 619.21103093765 C 586.62912600898 613.93103093765 590.98112600898 609.80303093765 596.51712600898 606.82703093765 C 602.05312600898 603.85103093765 608.27712600898 602.36303093765 615.18912600898 602.36303093765 C 621.01312600898 602.36303093765 626.27712600898 603.38703093765 630.98112600898 605.43503093765 C 635.68512600898 607.48303093765 639.63712600898 610.42703093765 642.83712600898 614.26703093765 L 632.85312600898 623.48303093765 C 628.30912600898 618.23503093765 622.67712600898 615.61103093765 615.95712600898 615.61103093765 C 611.79712600898 615.61103093765 608.08512600898 616.52303093765 604.82112600898 618.34703093765 C 601.55712600898 620.17103093765 599.01312600898 622.71503093765 597.18912600898 625.97903093765 C 595.36512600898 629.24303093765 594.45312600898 632.95503093765 594.45312600898 637.11503093765 C 594.45312600898 641.27503093765 595.36512600898 644.98703093765 597.18912600898 648.25103093765 C 599.01312600898 651.51503093765 601.55712600898 654.05903093765 604.82112600898 655.88303093765 C 608.08512600898 657.70703093765 611.79712600898 658.61903093765 615.95712600898 658.61903093765 C 622.67712600898 658.61903093765 628.30912600898 655.96303093765 632.85312600898 650.65103093765 L 642.83712600898 659.86703093765 C 639.63712600898 663.77103093765 635.66912600898 666.74703093765 630.93312600898 668.79503093765 C 626.19712600898 670.84303093765 620.91712600898 671.86703093765 615.09312600898 671.86703093765 C 608.24512600898 671.86703093765 602.05312600898 670.37903093765 596.51712600898 667.40303093765 Z M 687.14112600898 669.70703093765 C 682.18112600898 668.26703093765 678.19712600898 666.39503093765 675.18912600898 664.09103093765 L 680.46912600898 652.37903093765 C 683.34912600898 654.49103093765 686.77312600898 656.18703093765 690.74112600898 657.46703093765 C 694.70912600898 658.74703093765 698.67712600898 659.38703093765 702.64512600898 659.38703093765 C 707.06112600898 659.38703093765 710.32512600898 658.73103093765 712.43712600898 657.41903093765 C 714.54912600898 656.10703093765 715.60512600898 654.36303093765 715.60512600898 652.18703093765 C 715.60512600898 650.58703093765 714.98112600898 649.25903093765 713.73312600898 648.20303093765 C 712.48512600898 647.14703093765 710.88512600898 646.29903093765 708.93312600898 645.65903093765 C 706.98112600898 645.01903093765 704.34112600898 644.31503093765 701.01312600898 643.54703093765 C 695.89312600898 642.33103093765 691.70112600898 641.11503093765 688.43712600898 639.89903093765 C 685.17312600898 638.68303093765 682.37312600898 636.73103093765 680.03712600898 634.04303093765 C 677.70112600898 631.35503093765 676.53312600898 627.77103093765 676.53312600898 623.29103093765 C 676.53312600898 619.38703093765 677.58912600898 615.85103093765 679.70112600898 612.68303093765 C 681.81312600898 609.51503093765 684.99712600898 607.00303093765 689.25312600898 605.14703093765 C 693.50912600898 603.29103093765 698.70912600898 602.36303093765 704.85312600898 602.36303093765 C 709.14112600898 602.36303093765 713.33312600898 602.87503093765 717.42912600898 603.89903093765 C 721.52512600898 604.92303093765 725.10912600898 606.39503093765 728.18112600898 608.31503093765 L 723.38112600898 620.12303093765 C 717.17312600898 616.60303093765 710.96512600898 614.84303093765 704.75712600898 614.84303093765 C 700.40512600898 614.84303093765 697.18912600898 615.54703093765 695.10912600898 616.95503093765 C 693.02912600898 618.36303093765 691.98912600898 620.21903093765 691.98912600898 622.52303093765 C 691.98912600898 624.82703093765 693.18912600898 626.53903093765 695.58912600898 627.65903093765 C 697.98912600898 628.77903093765 701.65312600898 629.88303093765 706.58112600898 630.97103093765 C 711.70112600898 632.18703093765 715.89312600898 633.40303093765 719.15712600898 634.61903093765 C 722.42112600898 635.83503093765 725.22112600898 637.75503093765 727.55712600898 640.37903093765 C 729.89312600898 643.00303093765 731.06112600898 646.55503093765 731.06112600898 651.03503093765 C 731.06112600898 654.87503093765 729.98912600898 658.37903093765 727.84512600898 661.54703093765 C 725.70112600898 664.71503093765 722.48512600898 667.22703093765 718.19712600898 669.08303093765 C 713.90912600898 670.93903093765 708.69312600898 671.86703093765 702.54912600898 671.86703093765 C 697.23712600898 671.86703093765 692.10112600898 671.14703093765 687.14112600898 669.70703093765 Z M 741.62112600898 668.79503093765 C 739.82912600898 667.00303093765 738.93312600898 664.76303093765 738.93312600898 662.07503093765 C 738.93312600898 659.32303093765 739.82912600898 657.09903093765 741.62112600898 655.40303093765 C 743.41312600898 653.70703093765 745.62112600898 652.85903093765 748.24512600898 652.85903093765 C 750.86912600898 652.85903093765 753.07712600898 653.70703093765 754.86912600898 655.40303093765 C 756.66112600898 657.09903093765 757.55712600898 659.32303093765 757.55712600898 662.07503093765 C 757.55712600898 664.76303093765 756.66112600898 667.00303093765 754.86912600898 668.79503093765 C 753.07712600898 670.58703093765 750.86912600898 671.48303093765 748.24512600898 671.48303093765 C 745.62112600898 671.48303093765 743.41312600898 670.58703093765 741.62112600898 668.79503093765 Z M 816.11712600898 656.31503093765 L 784.91712600898 656.31503093765 L 778.96512600898 670.71503093765 L 763.02912600898 670.71503093765 L 792.98112600898 603.51503093765 L 808.34112600898 603.51503093765 L 838.38912600898 670.71503093765 L 822.06912600898 670.71503093765 L 816.11712600898 656.31503093765 Z M 811.22112600898 644.50703093765 L 800.56512600898 618.77903093765 L 789.90912600898 644.50703093765 L 811.22112600898 644.50703093765 Z M 846.45312600898 668.79503093765 C 844.66112600898 667.00303093765 843.76512600898 664.76303093765 843.76512600898 662.07503093765 C 843.76512600898 659.32303093765 844.66112600898 657.09903093765 846.45312600898 655.40303093765 C 848.24512600898 653.70703093765 850.45312600898 652.85903093765 853.07712600898 652.85903093765 C 855.70112600898 652.85903093765 857.90912600898 653.70703093765 859.70112600898 655.40303093765 C 861.49312600898 657.09903093765 862.38912600898 659.32303093765 862.38912600898 662.07503093765 C 862.38912600898 664.76303093765 861.49312600898 667.00303093765 859.70112600898 668.79503093765 C 857.90912600898 670.58703093765 855.70112600898 671.48303093765 853.07712600898 671.48303093765 C 850.45312600898 671.48303093765 848.24512600898 670.58703093765 846.45312600898 668.79503093765 Z M 881.25312600898 669.70703093765 C 876.29312600898 668.26703093765 872.30912600898 666.39503093765 869.30112600898 664.09103093765 L 874.58112600898 652.37903093765 C 877.46112600898 654.49103093765 880.88512600898 656.18703093765 884.85312600898 657.46703093765 C 888.82112600898 658.74703093765 892.78912600898 659.38703093765 896.75712600898 659.38703093765 C 901.17312600898 659.38703093765 904.43712600898 658.73103093765 906.54912600898 657.41903093765 C 908.66112600898 656.10703093765 909.71712600898 654.36303093765 909.71712600898 652.18703093765 C 909.71712600898 650.58703093765 909.09312600898 649.25903093765 907.84512600898 648.20303093765 C 906.59712600898 647.14703093765 904.99712600898 646.29903093765 903.04512600898 645.65903093765 C 901.09312600898 645.01903093765 898.45312600898 644.31503093765 895.12512600898 643.54703093765 C 890.00512600898 642.33103093765 885.81312600898 641.11503093765 882.54912600898 639.89903093765 C 879.28512600898 638.68303093765 876.48512600898 636.73103093765 874.14912600898 634.04303093765 C 871.81312600898 631.35503093765 870.64512600898 627.77103093765 870.64512600898 623.29103093765 C 870.64512600898 619.38703093765 871.70112600898 615.85103093765 873.81312600898 612.68303093765 C 875.92512600898 609.51503093765 879.10912600898 607.00303093765 883.36512600898 605.14703093765 C 887.62112600898 603.29103093765 892.82112600898 602.36303093765 898.96512600898 602.36303093765 C 903.25312600898 602.36303093765 907.44512600898 602.87503093765 911.54112600898 603.89903093765 C 915.63712600898 604.92303093765 919.22112600898 606.39503093765 922.29312600898 608.31503093765 L 917.49312600898 620.12303093765 C 911.28512600898 616.60303093765 905.07712600898 614.84303093765 898.86912600898 614.84303093765 C 894.51712600898 614.84303093765 891.30112600898 615.54703093765 889.22112600898 616.95503093765 C 887.14112600898 618.36303093765 886.10112600898 620.21903093765 886.10112600898 622.52303093765 C 886.10112600898 624.82703093765 887.30112600898 626.53903093765 889.70112600898 627.65903093765 C 892.10112600898 628.77903093765 895.76512600898 629.88303093765 900.69312600898 630.97103093765 C 905.81312600898 632.18703093765 910.00512600898 633.40303093765 913.26912600898 634.61903093765 C 916.53312600898 635.83503093765 919.33312600898 637.75503093765 921.66912600898 640.37903093765 C 924.00512600898 643.00303093765 925.17312600898 646.55503093765 925.17312600898 651.03503093765 C 925.17312600898 654.87503093765 924.10112600898 658.37903093765 921.95712600898 661.54703093765 C 919.81312600898 664.71503093765 916.59712600898 667.22703093765 912.30912600898 669.08303093765 C 908.02112600898 670.93903093765 902.80512600898 671.86703093765 896.66112600898 671.86703093765 C 891.34912600898 671.86703093765 886.21312600898 671.14703093765 881.25312600898 669.70703093765 Z"/><path id="text" fill="#0f3877" transform="matrix(0.3384135414260012 0 0 0.3384135414260012 229.08077938652787 100.05811801373503)" d="M 252.71425201797 1280.37406187529 L 229.09825201797 1280.37406187529 L 229.09825201797 1274.23006187529 L 283.43425201797 1274.23006187529 L 283.43425201797 1280.37406187529 L 259.81825201797 1280.37406187529 L 259.81825201797 1341.43006187529 L 252.71425201797 1341.43006187529 L 252.71425201797 1280.37406187529 Z M 305.65825201797 1293.14206187529 C 308.82625201797 1291.41406187529 312.74625201797 1290.55006187529 317.41825201797 1290.55006187529 L 317.41825201797 1297.17406187529 L 315.78625201797 1297.07806187529 C 310.47425201797 1297.07806187529 306.31425201797 1298.71006187529 303.30625201797 1301.97406187529 C 300.29825201797 1305.23806187529 298.79425201797 1309.81406187529 298.79425201797 1315.70206187529 L 298.79425201797 1341.43006187529 L 291.97825201797 1341.43006187529 L 291.97825201797 1290.93406187529 L 298.50625201797 1290.93406187529 L 298.50625201797 1300.82206187529 C 300.10625201797 1297.43006187529 302.49025201797 1294.87006187529 305.65825201797 1293.14206187529 Z M 362.44225201797 1295.49406187529 C 365.96225201797 1298.79006187529 367.72225201797 1303.67006187529 367.72225201797 1310.13406187529 L 367.72225201797 1341.43006187529 L 361.19425201797 1341.43006187529 L 361.19425201797 1333.55806187529 C 359.65825201797 1336.18206187529 357.40225201797 1338.23006187529 354.42625201797 1339.70206187529 C 351.45025201797 1341.17406187529 347.91425201797 1341.91006187529 343.81825201797 1341.91006187529 C 338.18625201797 1341.91006187529 333.70625201797 1340.56606187529 330.37825201797 1337.87806187529 C 327.05025201797 1335.19006187529 325.38625201797 1331.63806187529 325.38625201797 1327.22206187529 C 325.38625201797 1322.93406187529 326.93825201797 1319.47806187529 330.04225201797 1316.85406187529 C 333.14625201797 1314.23006187529 338.09025201797 1312.91806187529 344.87425201797 1312.91806187529 L 360.90625201797 1312.91806187529 L 360.90625201797 1309.84606187529 C 360.90625201797 1305.49406187529 359.69025201797 1302.18206187529 357.25825201797 1299.91006187529 C 354.82625201797 1297.63806187529 351.27425201797 1296.50206187529 346.60225201797 1296.50206187529 C 343.40225201797 1296.50206187529 340.33025201797 1297.03006187529 337.38625201797 1298.08606187529 C 334.44225201797 1299.14206187529 331.91425201797 1300.59806187529 329.80225201797 1302.45406187529 L 326.73025201797 1297.36606187529 C 329.29025201797 1295.19006187529 332.36225201797 1293.51006187529 335.94625201797 1292.32606187529 C 339.53025201797 1291.14206187529 343.30625201797 1290.55006187529 347.27425201797 1290.55006187529 C 353.86625201797 1290.55006187529 358.92225201797 1292.19806187529 362.44225201797 1295.49406187529 Z M 354.76225201797 1333.89406187529 C 357.51425201797 1332.13406187529 359.56225201797 1329.59006187529 360.90625201797 1326.26206187529 L 360.90625201797 1318.00606187529 L 345.06625201797 1318.00606187529 C 336.42625201797 1318.00606187529 332.10625201797 1321.01406187529 332.10625201797 1327.03006187529 C 332.10625201797 1329.97406187529 333.22625201797 1332.29406187529 335.46625201797 1333.99006187529 C 337.70625201797 1335.68606187529 340.84225201797 1336.53406187529 344.87425201797 1336.53406187529 C 348.71425201797 1336.53406187529 352.01025201797 1335.65406187529 354.76225201797 1333.89406187529 Z M 425.13025201797 1293.76606187529 C 428.97025201797 1295.91006187529 431.97825201797 1298.93406187529 434.15425201797 1302.83806187529 C 436.33025201797 1306.74206187529 437.41825201797 1311.19006187529 437.41825201797 1316.18206187529 C 437.41825201797 1321.17406187529 436.33025201797 1325.62206187529 434.15425201797 1329.52606187529 C 431.97825201797 1333.43006187529 428.97025201797 1336.47006187529 425.13025201797 1338.64606187529 C 421.29025201797 1340.82206187529 417.00225201797 1341.91006187529 412.26625201797 1341.91006187529 C 408.04225201797 1341.91006187529 404.25025201797 1341.01406187529 400.89025201797 1339.22206187529 C 397.53025201797 1337.43006187529 394.82625201797 1334.83806187529 392.77825201797 1331.44606187529 L 392.77825201797 1341.43006187529 L 386.25025201797 1341.43006187529 L 386.25025201797 1270.19806187529 L 393.06625201797 1270.19806187529 L 393.06625201797 1300.53406187529 C 395.17825201797 1297.27006187529 397.88225201797 1294.79006187529 401.17825201797 1293.09406187529 C 404.47425201797 1291.39806187529 408.17025201797 1290.55006187529 412.26625201797 1290.55006187529 C 417.00225201797 1290.55006187529 421.29025201797 1291.62206187529 425.13025201797 1293.76606187529 Z M 421.38625201797 1333.41406187529 C 424.26625201797 1331.78206187529 426.52225201797 1329.46206187529 428.15425201797 1326.45406187529 C 429.78625201797 1323.44606187529 430.60225201797 1320.02206187529 430.60225201797 1316.18206187529 C 430.60225201797 1312.34206187529 429.78625201797 1308.91806187529 428.15425201797 1305.91006187529 C 426.52225201797 1302.90206187529 424.26625201797 1300.58206187529 421.38625201797 1298.95006187529 C 418.50625201797 1297.31806187529 415.30625201797 1296.50206187529 411.78625201797 1296.50206187529 C 408.20225201797 1296.50206187529 404.98625201797 1297.31806187529 402.13825201797 1298.95006187529 C 399.29025201797 1300.58206187529 397.05025201797 1302.90206187529 395.41825201797 1305.91006187529 C 393.78625201797 1308.91806187529 392.97025201797 1312.34206187529 392.97025201797 1316.18206187529 C 392.97025201797 1320.02206187529 393.78625201797 1323.44606187529 395.41825201797 1326.45406187529 C 397.05025201797 1329.46206187529 399.29025201797 1331.78206187529 402.13825201797 1333.41406187529 C 404.98625201797 1335.04606187529 408.20225201797 1335.86206187529 411.78625201797 1335.86206187529 C 415.30625201797 1335.86206187529 418.50625201797 1335.04606187529 421.38625201797 1333.41406187529 Z M 483.88225201797 1295.49406187529 C 487.40225201797 1298.79006187529 489.16225201797 1303.67006187529 489.16225201797 1310.13406187529 L 489.16225201797 1341.43006187529 L 482.63425201797 1341.43006187529 L 482.63425201797 1333.55806187529 C 481.09825201797 1336.18206187529 478.84225201797 1338.23006187529 475.86625201797 1339.70206187529 C 472.89025201797 1341.17406187529 469.35425201797 1341.91006187529 465.25825201797 1341.91006187529 C 459.62625201797 1341.91006187529 455.14625201797 1340.56606187529 451.81825201797 1337.87806187529 C 448.49025201797 1335.19006187529 446.82625201797 1331.63806187529 446.82625201797 1327.22206187529 C 446.82625201797 1322.93406187529 448.37825201797 1319.47806187529 451.48225201797 1316.85406187529 C 454.58625201797 1314.23006187529 459.53025201797 1312.91806187529 466.31425201797 1312.91806187529 L 482.34625201797 1312.91806187529 L 482.34625201797 1309.84606187529 C 482.34625201797 1305.49406187529 481.13025201797 1302.18206187529 478.69825201797 1299.91006187529 C 476.26625201797 1297.63806187529 472.71425201797 1296.50206187529 468.04225201797 1296.50206187529 C 464.84225201797 1296.50206187529 461.77025201797 1297.03006187529 458.82625201797 1298.08606187529 C 455.88225201797 1299.14206187529 453.35425201797 1300.59806187529 451.24225201797 1302.45406187529 L 448.17025201797 1297.36606187529 C 450.73025201797 1295.19006187529 453.80225201797 1293.51006187529 457.38625201797 1292.32606187529 C 460.97025201797 1291.14206187529 464.74625201797 1290.55006187529 468.71425201797 1290.55006187529 C 475.30625201797 1290.55006187529 480.36225201797 1292.19806187529 483.88225201797 1295.49406187529 Z M 476.20225201797 1333.89406187529 C 478.95425201797 1332.13406187529 481.00225201797 1329.59006187529 482.34625201797 1326.26206187529 L 482.34625201797 1318.00606187529 L 466.50625201797 1318.00606187529 C 457.86625201797 1318.00606187529 453.54625201797 1321.01406187529 453.54625201797 1327.03006187529 C 453.54625201797 1329.97406187529 454.66625201797 1332.29406187529 456.90625201797 1333.99006187529 C 459.14625201797 1335.68606187529 462.28225201797 1336.53406187529 466.31425201797 1336.53406187529 C 470.15425201797 1336.53406187529 473.45025201797 1335.65406187529 476.20225201797 1333.89406187529 Z M 494.20225201797 1359.71806187529 C 492.31425201797 1359.17406187529 490.76225201797 1358.35806187529 489.54625201797 1357.27006187529 L 491.94625201797 1352.08606187529 C 493.93025201797 1353.81406187529 496.55425201797 1354.67806187529 499.81825201797 1354.67806187529 C 502.50625201797 1354.67806187529 504.57025201797 1353.87806187529 506.01025201797 1352.27806187529 C 507.45025201797 1350.67806187529 508.17025201797 1348.31006187529 508.17025201797 1345.17406187529 L 508.17025201797 1290.93406187529 L 514.98625201797 1290.93406187529 L 514.98625201797 1345.17406187529 C 514.98625201797 1349.91006187529 513.70625201797 1353.65406187529 511.14625201797 1356.40606187529 C 508.58625201797 1359.15806187529 504.93825201797 1360.53406187529 500.20225201797 1360.53406187529 C 498.09025201797 1360.53406187529 496.09025201797 1360.26206187529 494.20225201797 1359.71806187529 Z M 508.07425201797 1278.35806187529 C 507.11425201797 1277.39806187529 506.63425201797 1276.24606187529 506.63425201797 1274.90206187529 C 506.63425201797 1273.62206187529 507.11425201797 1272.50206187529 508.07425201797 1271.54206187529 C 509.03425201797 1270.58206187529 510.21825201797 1270.10206187529 511.62625201797 1270.10206187529 C 513.03425201797 1270.10206187529 514.21825201797 1270.56606187529 515.17825201797 1271.49406187529 C 516.13825201797 1272.42206187529 516.61825201797 1273.52606187529 516.61825201797 1274.80606187529 C 516.61825201797 1276.21406187529 516.13825201797 1277.39806187529 515.17825201797 1278.35806187529 C 514.21825201797 1279.31806187529 513.03425201797 1279.79806187529 511.62625201797 1279.79806187529 C 510.21825201797 1279.79806187529 509.03425201797 1279.31806187529 508.07425201797 1278.35806187529 Z M 541.48225201797 1338.59806187529 C 537.57825201797 1336.39006187529 534.50625201797 1333.33406187529 532.26625201797 1329.43006187529 C 530.02625201797 1325.52606187529 528.90625201797 1321.11006187529 528.90625201797 1316.18206187529 C 528.90625201797 1311.25406187529 530.02625201797 1306.83806187529 532.26625201797 1302.93406187529 C 534.50625201797 1299.03006187529 537.57825201797 1295.99006187529 541.48225201797 1293.81406187529 C 545.38625201797 1291.63806187529 549.77025201797 1290.55006187529 554.63425201797 1290.55006187529 C 559.49825201797 1290.55006187529 563.88225201797 1291.63806187529 567.78625201797 1293.81406187529 C 571.69025201797 1295.99006187529 574.74625201797 1299.03006187529 576.95425201797 1302.93406187529 C 579.16225201797 1306.83806187529 580.26625201797 1311.25406187529 580.26625201797 1316.18206187529 C 580.26625201797 1321.11006187529 579.16225201797 1325.52606187529 576.95425201797 1329.43006187529 C 574.74625201797 1333.33406187529 571.69025201797 1336.39006187529 567.78625201797 1338.59806187529 C 563.88225201797 1340.80606187529 559.49825201797 1341.91006187529 554.63425201797 1341.91006187529 C 549.77025201797 1341.91006187529 545.38625201797 1340.80606187529 541.48225201797 1338.59806187529 Z M 564.28225201797 1333.41406187529 C 567.13025201797 1331.78206187529 569.35425201797 1329.46206187529 570.95425201797 1326.45406187529 C 572.55425201797 1323.44606187529 573.35425201797 1320.02206187529 573.35425201797 1316.18206187529 C 573.35425201797 1312.34206187529 572.55425201797 1308.91806187529 570.95425201797 1305.91006187529 C 569.35425201797 1302.90206187529 567.13025201797 1300.58206187529 564.28225201797 1298.95006187529 C 561.43425201797 1297.31806187529 558.21825201797 1296.50206187529 554.63425201797 1296.50206187529 C 551.05025201797 1296.50206187529 547.83425201797 1297.31806187529 544.98625201797 1298.95006187529 C 542.13825201797 1300.58206187529 539.89825201797 1302.90206187529 538.26625201797 1305.91006187529 C 536.63425201797 1308.91806187529 535.81825201797 1312.34206187529 535.81825201797 1316.18206187529 C 535.81825201797 1320.02206187529 536.63425201797 1323.44606187529 538.26625201797 1326.45406187529 C 539.89825201797 1329.46206187529 542.13825201797 1331.78206187529 544.98625201797 1333.41406187529 C 547.83425201797 1335.04606187529 551.05025201797 1335.86206187529 554.63425201797 1335.86206187529 C 558.21825201797 1335.86206187529 561.43425201797 1335.04606187529 564.28225201797 1333.41406187529 Z M 626.87425201797 1338.64606187529 C 622.93825201797 1336.47006187529 619.85025201797 1333.41406187529 617.61025201797 1329.47806187529 C 615.37025201797 1325.54206187529 614.25025201797 1321.11006187529 614.25025201797 1316.18206187529 C 614.25025201797 1311.25406187529 615.37025201797 1306.83806187529 617.61025201797 1302.93406187529 C 619.85025201797 1299.03006187529 622.93825201797 1295.99006187529 626.87425201797 1293.81406187529 C 630.81025201797 1291.63806187529 635.27425201797 1290.55006187529 640.26625201797 1290.55006187529 C 644.61825201797 1290.55006187529 648.50625201797 1291.39806187529 651.93025201797 1293.09406187529 C 655.35425201797 1294.79006187529 658.05825201797 1297.27006187529 660.04225201797 1300.53406187529 L 654.95425201797 1303.99006187529 C 653.29025201797 1301.49406187529 651.17825201797 1299.62206187529 648.61825201797 1298.37406187529 C 646.05825201797 1297.12606187529 643.27425201797 1296.50206187529 640.26625201797 1296.50206187529 C 636.61825201797 1296.50206187529 633.33825201797 1297.31806187529 630.42625201797 1298.95006187529 C 627.51425201797 1300.58206187529 625.24225201797 1302.90206187529 623.61025201797 1305.91006187529 C 621.97825201797 1308.91806187529 621.16225201797 1312.34206187529 621.16225201797 1316.18206187529 C 621.16225201797 1320.08606187529 621.97825201797 1323.52606187529 623.61025201797 1326.50206187529 C 625.24225201797 1329.47806187529 627.51425201797 1331.78206187529 630.42625201797 1333.41406187529 C 633.33825201797 1335.04606187529 636.61825201797 1335.86206187529 640.26625201797 1335.86206187529 C 643.27425201797 1335.86206187529 646.05825201797 1335.25406187529 648.61825201797 1334.03806187529 C 651.17825201797 1332.82206187529 653.29025201797 1330.96606187529 654.95425201797 1328.47006187529 L 660.04225201797 1331.92606187529 C 658.05825201797 1335.19006187529 655.33825201797 1337.67006187529 651.88225201797 1339.36606187529 C 648.42625201797 1341.06206187529 644.55425201797 1341.91006187529 640.26625201797 1341.91006187529 C 635.27425201797 1341.91006187529 630.81025201797 1340.82206187529 626.87425201797 1338.64606187529 Z M 680.01025201797 1338.59806187529 C 676.10625201797 1336.39006187529 673.03425201797 1333.33406187529 670.79425201797 1329.43006187529 C 668.55425201797 1325.52606187529 667.43425201797 1321.11006187529 667.43425201797 1316.18206187529 C 667.43425201797 1311.25406187529 668.55425201797 1306.83806187529 670.79425201797 1302.93406187529 C 673.03425201797 1299.03006187529 676.10625201797 1295.99006187529 680.01025201797 1293.81406187529 C 683.91425201797 1291.63806187529 688.29825201797 1290.55006187529 693.16225201797 1290.55006187529 C 698.02625201797 1290.55006187529 702.41025201797 1291.63806187529 706.31425201797 1293.81406187529 C 710.21825201797 1295.99006187529 713.27425201797 1299.03006187529 715.48225201797 1302.93406187529 C 717.69025201797 1306.83806187529 718.79425201797 1311.25406187529 718.79425201797 1316.18206187529 C 718.79425201797 1321.11006187529 717.69025201797 1325.52606187529 715.48225201797 1329.43006187529 C 713.27425201797 1333.33406187529 710.21825201797 1336.39006187529 706.31425201797 1338.59806187529 C 702.41025201797 1340.80606187529 698.02625201797 1341.91006187529 693.16225201797 1341.91006187529 C 688.29825201797 1341.91006187529 683.91425201797 1340.80606187529 680.01025201797 1338.59806187529 Z M 702.81025201797 1333.41406187529 C 705.65825201797 1331.78206187529 707.88225201797 1329.46206187529 709.48225201797 1326.45406187529 C 711.08225201797 1323.44606187529 711.88225201797 1320.02206187529 711.88225201797 1316.18206187529 C 711.88225201797 1312.34206187529 711.08225201797 1308.91806187529 709.48225201797 1305.91006187529 C 707.88225201797 1302.90206187529 705.65825201797 1300.58206187529 702.81025201797 1298.95006187529 C 699.96225201797 1297.31806187529 696.74625201797 1296.50206187529 693.16225201797 1296.50206187529 C 689.57825201797 1296.50206187529 686.36225201797 1297.31806187529 683.51425201797 1298.95006187529 C 680.66625201797 1300.58206187529 678.42625201797 1302.90206187529 676.79425201797 1305.91006187529 C 675.16225201797 1308.91806187529 674.34625201797 1312.34206187529 674.34625201797 1316.18206187529 C 674.34625201797 1320.02206187529 675.16225201797 1323.44606187529 676.79425201797 1326.45406187529 C 678.42625201797 1329.46206187529 680.66625201797 1331.78206187529 683.51425201797 1333.41406187529 C 686.36225201797 1335.04606187529 689.57825201797 1335.86206187529 693.16225201797 1335.86206187529 C 696.74625201797 1335.86206187529 699.96225201797 1335.04606187529 702.81025201797 1333.41406187529 Z M 773.56225201797 1296.07006187529 C 777.30625201797 1299.75006187529 779.17825201797 1305.11006187529 779.17825201797 1312.15006187529 L 779.17825201797 1341.43006187529 L 772.36225201797 1341.43006187529 L 772.36225201797 1312.82206187529 C 772.36225201797 1307.57406187529 771.05025201797 1303.57406187529 768.42625201797 1300.82206187529 C 765.80225201797 1298.07006187529 762.05825201797 1296.69406187529 757.19425201797 1296.69406187529 C 751.75425201797 1296.69406187529 747.45025201797 1298.31006187529 744.28225201797 1301.54206187529 C 741.11425201797 1304.77406187529 739.53025201797 1309.23806187529 739.53025201797 1314.93406187529 L 739.53025201797 1341.43006187529 L 732.71425201797 1341.43006187529 L 732.71425201797 1290.93406187529 L 739.24225201797 1290.93406187529 L 739.24225201797 1300.24606187529 C 741.09825201797 1297.17406187529 743.67425201797 1294.79006187529 746.97025201797 1293.09406187529 C 750.26625201797 1291.39806187529 754.09025201797 1290.55006187529 758.44225201797 1290.55006187529 C 764.77825201797 1290.55006187529 769.81825201797 1292.39006187529 773.56225201797 1296.07006187529 Z M 830.39425201797 1338.64606187529 C 826.45825201797 1336.47006187529 823.37025201797 1333.41406187529 821.13025201797 1329.47806187529 C 818.89025201797 1325.54206187529 817.77025201797 1321.11006187529 817.77025201797 1316.18206187529 C 817.77025201797 1311.25406187529 818.89025201797 1306.83806187529 821.13025201797 1302.93406187529 C 823.37025201797 1299.03006187529 826.45825201797 1295.99006187529 830.39425201797 1293.81406187529 C 834.33025201797 1291.63806187529 838.79425201797 1290.55006187529 843.78625201797 1290.55006187529 C 848.13825201797 1290.55006187529 852.02625201797 1291.39806187529 855.45025201797 1293.09406187529 C 858.87425201797 1294.79006187529 861.57825201797 1297.27006187529 863.56225201797 1300.53406187529 L 858.47425201797 1303.99006187529 C 856.81025201797 1301.49406187529 854.69825201797 1299.62206187529 852.13825201797 1298.37406187529 C 849.57825201797 1297.12606187529 846.79425201797 1296.50206187529 843.78625201797 1296.50206187529 C 840.13825201797 1296.50206187529 836.85825201797 1297.31806187529 833.94625201797 1298.95006187529 C 831.03425201797 1300.58206187529 828.76225201797 1302.90206187529 827.13025201797 1305.91006187529 C 825.49825201797 1308.91806187529 824.68225201797 1312.34206187529 824.68225201797 1316.18206187529 C 824.68225201797 1320.08606187529 825.49825201797 1323.52606187529 827.13025201797 1326.50206187529 C 828.76225201797 1329.47806187529 831.03425201797 1331.78206187529 833.94625201797 1333.41406187529 C 836.85825201797 1335.04606187529 840.13825201797 1335.86206187529 843.78625201797 1335.86206187529 C 846.79425201797 1335.86206187529 849.57825201797 1335.25406187529 852.13825201797 1334.03806187529 C 854.69825201797 1332.82206187529 856.81025201797 1330.96606187529 858.47425201797 1328.47006187529 L 863.56225201797 1331.92606187529 C 861.57825201797 1335.19006187529 858.85825201797 1337.67006187529 855.40225201797 1339.36606187529 C 851.94625201797 1341.06206187529 848.07425201797 1341.91006187529 843.78625201797 1341.91006187529 C 838.79425201797 1341.91006187529 834.33025201797 1340.82206187529 830.39425201797 1338.64606187529 Z M 909.73825201797 1295.49406187529 C 913.25825201797 1298.79006187529 915.01825201797 1303.67006187529 915.01825201797 1310.13406187529 L 915.01825201797 1341.43006187529 L 908.49025201797 1341.43006187529 L 908.49025201797 1333.55806187529 C 906.95425201797 1336.18206187529 904.69825201797 1338.23006187529 901.72225201797 1339.70206187529 C 898.74625201797 1341.17406187529 895.21025201797 1341.91006187529 891.11425201797 1341.91006187529 C 885.48225201797 1341.91006187529 881.00225201797 1340.56606187529 877.67425201797 1337.87806187529 C 874.34625201797 1335.19006187529 872.68225201797 1331.63806187529 872.68225201797 1327.22206187529 C 872.68225201797 1322.93406187529 874.23425201797 1319.47806187529 877.33825201797 1316.85406187529 C 880.44225201797 1314.23006187529 885.38625201797 1312.91806187529 892.17025201797 1312.91806187529 L 908.20225201797 1312.91806187529 L 908.20225201797 1309.84606187529 C 908.20225201797 1305.49406187529 906.98625201797 1302.18206187529 904.55425201797 1299.91006187529 C 902.12225201797 1297.63806187529 898.57025201797 1296.50206187529 893.89825201797 1296.50206187529 C 890.69825201797 1296.50206187529 887.62625201797 1297.03006187529 884.68225201797 1298.08606187529 C 881.73825201797 1299.14206187529 879.21025201797 1300.59806187529 877.09825201797 1302.45406187529 L 874.02625201797 1297.36606187529 C 876.58625201797 1295.19006187529 879.65825201797 1293.51006187529 883.24225201797 1292.32606187529 C 886.82625201797 1291.14206187529 890.60225201797 1290.55006187529 894.57025201797 1290.55006187529 C 901.16225201797 1290.55006187529 906.21825201797 1292.19806187529 909.73825201797 1295.49406187529 Z M 902.05825201797 1333.89406187529 C 904.81025201797 1332.13406187529 906.85825201797 1329.59006187529 908.20225201797 1326.26206187529 L 908.20225201797 1318.00606187529 L 892.36225201797 1318.00606187529 C 883.72225201797 1318.00606187529 879.40225201797 1321.01406187529 879.40225201797 1327.03006187529 C 879.40225201797 1329.97406187529 880.52225201797 1332.29406187529 882.76225201797 1333.99006187529 C 885.00225201797 1335.68606187529 888.13825201797 1336.53406187529 892.17025201797 1336.53406187529 C 896.01025201797 1336.53406187529 899.30625201797 1335.65406187529 902.05825201797 1333.89406187529 Z M 933.54625201797 1270.19806187529 L 940.36225201797 1270.19806187529 L 940.36225201797 1341.43006187529 L 933.54625201797 1341.43006187529 L 933.54625201797 1270.19806187529 Z M 959.37025201797 1290.93406187529 L 966.18625201797 1290.93406187529 L 966.18625201797 1341.43006187529 L 959.37025201797 1341.43006187529 L 959.37025201797 1290.93406187529 Z M 959.27425201797 1278.45406187529 C 958.31425201797 1277.49406187529 957.83425201797 1276.34206187529 957.83425201797 1274.99806187529 C 957.83425201797 1273.71806187529 958.31425201797 1272.59806187529 959.27425201797 1271.63806187529 C 960.23425201797 1270.67806187529 961.41825201797 1270.19806187529 962.82625201797 1270.19806187529 C 964.23425201797 1270.19806187529 965.41825201797 1270.66206187529 966.37825201797 1271.59006187529 C 967.33825201797 1272.51806187529 967.81825201797 1273.62206187529 967.81825201797 1274.90206187529 C 967.81825201797 1276.31006187529 967.33825201797 1277.49406187529 966.37825201797 1278.45406187529 C 965.41825201797 1279.41406187529 964.23425201797 1279.89406187529 962.82625201797 1279.89406187529 C 961.41825201797 1279.89406187529 960.23425201797 1279.41406187529 959.27425201797 1278.45406187529 Z M 1031.27425201797 1270.19806187529 L 1031.27425201797 1341.43006187529 L 1024.74625201797 1341.43006187529 L 1024.74625201797 1331.44606187529 C 1022.69825201797 1334.83806187529 1019.99425201797 1337.43006187529 1016.63425201797 1339.22206187529 C 1013.27425201797 1341.01406187529 1009.48225201797 1341.91006187529 1005.25825201797 1341.91006187529 C 1000.52225201797 1341.91006187529 996.23425201797 1340.82206187529 992.39425201797 1338.64606187529 C 988.55425201797 1336.47006187529 985.54625201797 1333.43006187529 983.37025201797 1329.52606187529 C 981.19425201797 1325.62206187529 980.10625201797 1321.17406187529 980.10625201797 1316.18206187529 C 980.10625201797 1311.19006187529 981.19425201797 1306.74206187529 983.37025201797 1302.83806187529 C 985.54625201797 1298.93406187529 988.55425201797 1295.91006187529 992.39425201797 1293.76606187529 C 996.23425201797 1291.62206187529 1000.52225201797 1290.55006187529 1005.25825201797 1290.55006187529 C 1009.35425201797 1290.55006187529 1013.05025201797 1291.39806187529 1016.34625201797 1293.09406187529 C 1019.64225201797 1294.79006187529 1022.34625201797 1297.27006187529 1024.45825201797 1300.53406187529 L 1024.45825201797 1270.19806187529 L 1031.27425201797 1270.19806187529 Z M 1015.38625201797 1333.41406187529 C 1018.23425201797 1331.78206187529 1020.47425201797 1329.46206187529 1022.10625201797 1326.45406187529 C 1023.73825201797 1323.44606187529 1024.55425201797 1320.02206187529 1024.55425201797 1316.18206187529 C 1024.55425201797 1312.34206187529 1023.73825201797 1308.91806187529 1022.10625201797 1305.91006187529 C 1020.47425201797 1302.90206187529 1018.23425201797 1300.58206187529 1015.38625201797 1298.95006187529 C 1012.53825201797 1297.31806187529 1009.35425201797 1296.50206187529 1005.83425201797 1296.50206187529 C 1002.25025201797 1296.50206187529 999.03425201797 1297.31806187529 996.18625201797 1298.95006187529 C 993.33825201797 1300.58206187529 991.09825201797 1302.90206187529 989.46625201797 1305.91006187529 C 987.83425201797 1308.91806187529 987.01825201797 1312.34206187529 987.01825201797 1316.18206187529 C 987.01825201797 1320.02206187529 987.83425201797 1323.44606187529 989.46625201797 1326.45406187529 C 991.09825201797 1329.46206187529 993.33825201797 1331.78206187529 996.18625201797 1333.41406187529 C 999.03425201797 1335.04606187529 1002.25025201797 1335.86206187529 1005.83425201797 1335.86206187529 C 1009.35425201797 1335.86206187529 1012.53825201797 1335.04606187529 1015.38625201797 1333.41406187529 Z M 1083.11425201797 1295.49406187529 C 1086.63425201797 1298.79006187529 1088.39425201797 1303.67006187529 1088.39425201797 1310.13406187529 L 1088.39425201797 1341.43006187529 L 1081.86625201797 1341.43006187529 L 1081.86625201797 1333.55806187529 C 1080.33025201797 1336.18206187529 1078.07425201797 1338.23006187529 1075.09825201797 1339.70206187529 C 1072.12225201797 1341.17406187529 1068.58625201797 1341.91006187529 1064.49025201797 1341.91006187529 C 1058.85825201797 1341.91006187529 1054.37825201797 1340.56606187529 1051.05025201797 1337.87806187529 C 1047.72225201797 1335.19006187529 1046.05825201797 1331.63806187529 1046.05825201797 1327.22206187529 C 1046.05825201797 1322.93406187529 1047.61025201797 1319.47806187529 1050.71425201797 1316.85406187529 C 1053.81825201797 1314.23006187529 1058.76225201797 1312.91806187529 1065.54625201797 1312.91806187529 L 1081.57825201797 1312.91806187529 L 1081.57825201797 1309.84606187529 C 1081.57825201797 1305.49406187529 1080.36225201797 1302.18206187529 1077.93025201797 1299.91006187529 C 1075.49825201797 1297.63806187529 1071.94625201797 1296.50206187529 1067.27425201797 1296.50206187529 C 1064.07425201797 1296.50206187529 1061.00225201797 1297.03006187529 1058.05825201797 1298.08606187529 C 1055.11425201797 1299.14206187529 1052.58625201797 1300.59806187529 1050.47425201797 1302.45406187529 L 1047.40225201797 1297.36606187529 C 1049.96225201797 1295.19006187529 1053.03425201797 1293.51006187529 1056.61825201797 1292.32606187529 C 1060.20225201797 1291.14206187529 1063.97825201797 1290.55006187529 1067.94625201797 1290.55006187529 C 1074.53825201797 1290.55006187529 1079.59425201797 1292.19806187529 1083.11425201797 1295.49406187529 Z M 1075.43425201797 1333.89406187529 C 1078.18625201797 1332.13406187529 1080.23425201797 1329.59006187529 1081.57825201797 1326.26206187529 L 1081.57825201797 1318.00606187529 L 1065.73825201797 1318.00606187529 C 1057.09825201797 1318.00606187529 1052.77825201797 1321.01406187529 1052.77825201797 1327.03006187529 C 1052.77825201797 1329.97406187529 1053.89825201797 1332.29406187529 1056.13825201797 1333.99006187529 C 1058.37825201797 1335.68606187529 1061.51425201797 1336.53406187529 1065.54625201797 1336.53406187529 C 1069.38625201797 1336.53406187529 1072.68225201797 1335.65406187529 1075.43425201797 1333.89406187529 Z M 1153.19425201797 1270.19806187529 L 1153.19425201797 1341.43006187529 L 1146.66625201797 1341.43006187529 L 1146.66625201797 1331.44606187529 C 1144.61825201797 1334.83806187529 1141.91425201797 1337.43006187529 1138.55425201797 1339.22206187529 C 1135.19425201797 1341.01406187529 1131.40225201797 1341.91006187529 1127.17825201797 1341.91006187529 C 1122.44225201797 1341.91006187529 1118.15425201797 1340.82206187529 1114.31425201797 1338.64606187529 C 1110.47425201797 1336.47006187529 1107.46625201797 1333.43006187529 1105.29025201797 1329.52606187529 C 1103.11425201797 1325.62206187529 1102.02625201797 1321.17406187529 1102.02625201797 1316.18206187529 C 1102.02625201797 1311.19006187529 1103.11425201797 1306.74206187529 1105.29025201797 1302.83806187529 C 1107.46625201797 1298.93406187529 1110.47425201797 1295.91006187529 1114.31425201797 1293.76606187529 C 1118.15425201797 1291.62206187529 1122.44225201797 1290.55006187529 1127.17825201797 1290.55006187529 C 1131.27425201797 1290.55006187529 1134.97025201797 1291.39806187529 1138.26625201797 1293.09406187529 C 1141.56225201797 1294.79006187529 1144.26625201797 1297.27006187529 1146.37825201797 1300.53406187529 L 1146.37825201797 1270.19806187529 L 1153.19425201797 1270.19806187529 Z M 1137.30625201797 1333.41406187529 C 1140.15425201797 1331.78206187529 1142.39425201797 1329.46206187529 1144.02625201797 1326.45406187529 C 1145.65825201797 1323.44606187529 1146.47425201797 1320.02206187529 1146.47425201797 1316.18206187529 C 1146.47425201797 1312.34206187529 1145.65825201797 1308.91806187529 1144.02625201797 1305.91006187529 C 1142.39425201797 1302.90206187529 1140.15425201797 1300.58206187529 1137.30625201797 1298.95006187529 C 1134.45825201797 1297.31806187529 1131.27425201797 1296.50206187529 1127.75425201797 1296.50206187529 C 1124.17025201797 1296.50206187529 1120.95425201797 1297.31806187529 1118.10625201797 1298.95006187529 C 1115.25825201797 1300.58206187529 1113.01825201797 1302.90206187529 1111.38625201797 1305.91006187529 C 1109.75425201797 1308.91806187529 1108.93825201797 1312.34206187529 1108.93825201797 1316.18206187529 C 1108.93825201797 1320.02206187529 1109.75425201797 1323.44606187529 1111.38625201797 1326.45406187529 C 1113.01825201797 1329.46206187529 1115.25825201797 1331.78206187529 1118.10625201797 1333.41406187529 C 1120.95425201797 1335.04606187529 1124.17025201797 1335.86206187529 1127.75425201797 1335.86206187529 C 1131.27425201797 1335.86206187529 1134.45825201797 1335.04606187529 1137.30625201797 1333.41406187529 Z M 1230.18625201797 1295.49406187529 C 1233.70625201797 1298.79006187529 1235.46625201797 1303.67006187529 1235.46625201797 1310.13406187529 L 1235.46625201797 1341.43006187529 L 1228.93825201797 1341.43006187529 L 1228.93825201797 1333.55806187529 C 1227.40225201797 1336.18206187529 1225.14625201797 1338.23006187529 1222.17025201797 1339.70206187529 C 1219.19425201797 1341.17406187529 1215.65825201797 1341.91006187529 1211.56225201797 1341.91006187529 C 1205.93025201797 1341.91006187529 1201.45025201797 1340.56606187529 1198.12225201797 1337.87806187529 C 1194.79425201797 1335.19006187529 1193.13025201797 1331.63806187529 1193.13025201797 1327.22206187529 C 1193.13025201797 1322.93406187529 1194.68225201797 1319.47806187529 1197.78625201797 1316.85406187529 C 1200.89025201797 1314.23006187529 1205.83425201797 1312.91806187529 1212.61825201797 1312.91806187529 L 1228.65025201797 1312.91806187529 L 1228.65025201797 1309.84606187529 C 1228.65025201797 1305.49406187529 1227.43425201797 1302.18206187529 1225.00225201797 1299.91006187529 C 1222.57025201797 1297.63806187529 1219.01825201797 1296.50206187529 1214.34625201797 1296.50206187529 C 1211.14625201797 1296.50206187529 1208.07425201797 1297.03006187529 1205.13025201797 1298.08606187529 C 1202.18625201797 1299.14206187529 1199.65825201797 1300.59806187529 1197.54625201797 1302.45406187529 L 1194.47425201797 1297.36606187529 C 1197.03425201797 1295.19006187529 1200.10625201797 1293.51006187529 1203.69025201797 1292.32606187529 C 1207.27425201797 1291.14206187529 1211.05025201797 1290.55006187529 1215.01825201797 1290.55006187529 C 1221.61025201797 1290.55006187529 1226.66625201797 1292.19806187529 1230.18625201797 1295.49406187529 Z M 1222.50625201797 1333.89406187529 C 1225.25825201797 1332.13406187529 1227.30625201797 1329.59006187529 1228.65025201797 1326.26206187529 L 1228.65025201797 1318.00606187529 L 1212.81025201797 1318.00606187529 C 1204.17025201797 1318.00606187529 1199.85025201797 1321.01406187529 1199.85025201797 1327.03006187529 C 1199.85025201797 1329.97406187529 1200.97025201797 1332.29406187529 1203.21025201797 1333.99006187529 C 1205.45025201797 1335.68606187529 1208.58625201797 1336.53406187529 1212.61825201797 1336.53406187529 C 1216.45825201797 1336.53406187529 1219.75425201797 1335.65406187529 1222.50625201797 1333.89406187529 Z M 1318.02625201797 1293.76606187529 C 1321.86625201797 1295.91006187529 1324.87425201797 1298.93406187529 1327.05025201797 1302.83806187529 C 1329.22625201797 1306.74206187529 1330.31425201797 1311.19006187529 1330.31425201797 1316.18206187529 C 1330.31425201797 1321.23806187529 1329.22625201797 1325.71806187529 1327.05025201797 1329.62206187529 C 1324.87425201797 1333.52606187529 1321.88225201797 1336.55006187529 1318.07425201797 1338.69406187529 C 1314.26625201797 1340.83806187529 1309.96225201797 1341.91006187529 1305.16225201797 1341.91006187529 C 1301.06625201797 1341.91006187529 1297.37025201797 1341.06206187529 1294.07425201797 1339.36606187529 C 1290.77825201797 1337.67006187529 1288.07425201797 1335.19006187529 1285.96225201797 1331.92606187529 L 1285.96225201797 1360.05406187529 L 1279.14625201797 1360.05406187529 L 1279.14625201797 1290.93406187529 L 1285.67425201797 1290.93406187529 L 1285.67425201797 1300.91806187529 C 1287.72225201797 1297.59006187529 1290.42625201797 1295.03006187529 1293.78625201797 1293.23806187529 C 1297.14625201797 1291.44606187529 1300.93825201797 1290.55006187529 1305.16225201797 1290.55006187529 C 1309.89825201797 1290.55006187529 1314.18625201797 1291.62206187529 1318.02625201797 1293.76606187529 Z M 1314.28225201797 1333.41406187529 C 1317.16225201797 1331.78206187529 1319.41825201797 1329.46206187529 1321.05025201797 1326.45406187529 C 1322.68225201797 1323.44606187529 1323.49825201797 1320.02206187529 1323.49825201797 1316.18206187529 C 1323.49825201797 1312.34206187529 1322.68225201797 1308.93406187529 1321.05025201797 1305.95806187529 C 1319.41825201797 1302.98206187529 1317.16225201797 1300.66206187529 1314.28225201797 1298.99806187529 C 1311.40225201797 1297.33406187529 1308.20225201797 1296.50206187529 1304.68225201797 1296.50206187529 C 1301.09825201797 1296.50206187529 1297.88225201797 1297.33406187529 1295.03425201797 1298.99806187529 C 1292.18625201797 1300.66206187529 1289.94625201797 1302.98206187529 1288.31425201797 1305.95806187529 C 1286.68225201797 1308.93406187529 1285.86625201797 1312.34206187529 1285.86625201797 1316.18206187529 C 1285.86625201797 1320.02206187529 1286.68225201797 1323.44606187529 1288.31425201797 1326.45406187529 C 1289.94625201797 1329.46206187529 1292.18625201797 1331.78206187529 1295.03425201797 1333.41406187529 C 1297.88225201797 1335.04606187529 1301.09825201797 1335.86206187529 1304.68225201797 1335.86206187529 C 1308.20225201797 1335.86206187529 1311.40225201797 1335.04606187529 1314.28225201797 1333.41406187529 Z M 1357.91425201797 1293.14206187529 C 1361.08225201797 1291.41406187529 1365.00225201797 1290.55006187529 1369.67425201797 1290.55006187529 L 1369.67425201797 1297.17406187529 L 1368.04225201797 1297.07806187529 C 1362.73025201797 1297.07806187529 1358.57025201797 1298.71006187529 1355.56225201797 1301.97406187529 C 1352.55425201797 1305.23806187529 1351.05025201797 1309.81406187529 1351.05025201797 1315.70206187529 L 1351.05025201797 1341.43006187529 L 1344.23425201797 1341.43006187529 L 1344.23425201797 1290.93406187529 L 1350.76225201797 1290.93406187529 L 1350.76225201797 1300.82206187529 C 1352.36225201797 1297.43006187529 1354.74625201797 1294.87006187529 1357.91425201797 1293.14206187529 Z M 1425.45025201797 1318.29406187529 L 1383.21025201797 1318.29406187529 C 1383.59425201797 1323.54206187529 1385.61025201797 1327.78206187529 1389.25825201797 1331.01406187529 C 1392.90625201797 1334.24606187529 1397.51425201797 1335.86206187529 1403.08225201797 1335.86206187529 C 1406.21825201797 1335.86206187529 1409.09825201797 1335.30206187529 1411.72225201797 1334.18206187529 C 1414.34625201797 1333.06206187529 1416.61825201797 1331.41406187529 1418.53825201797 1329.23806187529 L 1422.37825201797 1333.65406187529 C 1420.13825201797 1336.34206187529 1417.33825201797 1338.39006187529 1413.97825201797 1339.79806187529 C 1410.61825201797 1341.20606187529 1406.92225201797 1341.91006187529 1402.89025201797 1341.91006187529 C 1397.70625201797 1341.91006187529 1393.11425201797 1340.80606187529 1389.11425201797 1338.59806187529 C 1385.11425201797 1336.39006187529 1381.99425201797 1333.33406187529 1379.75425201797 1329.43006187529 C 1377.51425201797 1325.52606187529 1376.39425201797 1321.11006187529 1376.39425201797 1316.18206187529 C 1376.39425201797 1311.25406187529 1377.46625201797 1306.83806187529 1379.61025201797 1302.93406187529 C 1381.75425201797 1299.03006187529 1384.69825201797 1295.99006187529 1388.44225201797 1293.81406187529 C 1392.18625201797 1291.63806187529 1396.39425201797 1290.55006187529 1401.06625201797 1290.55006187529 C 1405.73825201797 1290.55006187529 1409.93025201797 1291.63806187529 1413.64225201797 1293.81406187529 C 1417.35425201797 1295.99006187529 1420.26625201797 1299.01406187529 1422.37825201797 1302.88606187529 C 1424.49025201797 1306.75806187529 1425.54625201797 1311.19006187529 1425.54625201797 1316.18206187529 L 1425.45025201797 1318.29406187529 Z M 1388.82625201797 1301.06206187529 C 1385.53025201797 1304.16606187529 1383.65825201797 1308.21406187529 1383.21025201797 1313.20606187529 L 1419.01825201797 1313.20606187529 C 1418.57025201797 1308.21406187529 1416.69825201797 1304.16606187529 1413.40225201797 1301.06206187529 C 1410.10625201797 1297.95806187529 1405.99425201797 1296.40606187529 1401.06625201797 1296.40606187529 C 1396.20225201797 1296.40606187529 1392.12225201797 1297.95806187529 1388.82625201797 1301.06206187529 Z M 1447.00225201797 1338.64606187529 C 1443.06625201797 1336.47006187529 1439.97825201797 1333.41406187529 1437.73825201797 1329.47806187529 C 1435.49825201797 1325.54206187529 1434.37825201797 1321.11006187529 1434.37825201797 1316.18206187529 C 1434.37825201797 1311.25406187529 1435.49825201797 1306.83806187529 1437.73825201797 1302.93406187529 C 1439.97825201797 1299.03006187529 1443.06625201797 1295.99006187529 1447.00225201797 1293.81406187529 C 1450.93825201797 1291.63806187529 1455.40225201797 1290.55006187529 1460.39425201797 1290.55006187529 C 1464.74625201797 1290.55006187529 1468.63425201797 1291.39806187529 1472.05825201797 1293.09406187529 C 1475.48225201797 1294.79006187529 1478.18625201797 1297.27006187529 1480.17025201797 1300.53406187529 L 1475.08225201797 1303.99006187529 C 1473.41825201797 1301.49406187529 1471.30625201797 1299.62206187529 1468.74625201797 1298.37406187529 C 1466.18625201797 1297.12606187529 1463.40225201797 1296.50206187529 1460.39425201797 1296.50206187529 C 1456.74625201797 1296.50206187529 1453.46625201797 1297.31806187529 1450.55425201797 1298.95006187529 C 1447.64225201797 1300.58206187529 1445.37025201797 1302.90206187529 1443.73825201797 1305.91006187529 C 1442.10625201797 1308.91806187529 1441.29025201797 1312.34206187529 1441.29025201797 1316.18206187529 C 1441.29025201797 1320.08606187529 1442.10625201797 1323.52606187529 1443.73825201797 1326.50206187529 C 1445.37025201797 1329.47806187529 1447.64225201797 1331.78206187529 1450.55425201797 1333.41406187529 C 1453.46625201797 1335.04606187529 1456.74625201797 1335.86206187529 1460.39425201797 1335.86206187529 C 1463.40225201797 1335.86206187529 1466.18625201797 1335.25406187529 1468.74625201797 1334.03806187529 C 1471.30625201797 1332.82206187529 1473.41825201797 1330.96606187529 1475.08225201797 1328.47006187529 L 1480.17025201797 1331.92606187529 C 1478.18625201797 1335.19006187529 1475.46625201797 1337.67006187529 1472.01025201797 1339.36606187529 C 1468.55425201797 1341.06206187529 1464.68225201797 1341.91006187529 1460.39425201797 1341.91006187529 C 1455.40225201797 1341.91006187529 1450.93825201797 1340.82206187529 1447.00225201797 1338.64606187529 Z M 1493.51425201797 1290.93406187529 L 1500.33025201797 1290.93406187529 L 1500.33025201797 1341.43006187529 L 1493.51425201797 1341.43006187529 L 1493.51425201797 1290.93406187529 Z M 1493.41825201797 1278.45406187529 C 1492.45825201797 1277.49406187529 1491.97825201797 1276.34206187529 1491.97825201797 1274.99806187529 C 1491.97825201797 1273.71806187529 1492.45825201797 1272.59806187529 1493.41825201797 1271.63806187529 C 1494.37825201797 1270.67806187529 1495.56225201797 1270.19806187529 1496.97025201797 1270.19806187529 C 1498.37825201797 1270.19806187529 1499.56225201797 1270.66206187529 1500.52225201797 1271.59006187529 C 1501.48225201797 1272.51806187529 1501.96225201797 1273.62206187529 1501.96225201797 1274.90206187529 C 1501.96225201797 1276.31006187529 1501.48225201797 1277.49406187529 1500.52225201797 1278.45406187529 C 1499.56225201797 1279.41406187529 1498.37825201797 1279.89406187529 1496.97025201797 1279.89406187529 C 1495.56225201797 1279.89406187529 1494.37825201797 1279.41406187529 1493.41825201797 1278.45406187529 Z M 1526.82625201797 1338.59806187529 C 1522.92225201797 1336.39006187529 1519.85025201797 1333.33406187529 1517.61025201797 1329.43006187529 C 1515.37025201797 1325.52606187529 1514.25025201797 1321.11006187529 1514.25025201797 1316.18206187529 C 1514.25025201797 1311.25406187529 1515.37025201797 1306.83806187529 1517.61025201797 1302.93406187529 C 1519.85025201797 1299.03006187529 1522.92225201797 1295.99006187529 1526.82625201797 1293.81406187529 C 1530.73025201797 1291.63806187529 1535.11425201797 1290.55006187529 1539.97825201797 1290.55006187529 C 1544.84225201797 1290.55006187529 1549.22625201797 1291.63806187529 1553.13025201797 1293.81406187529 C 1557.03425201797 1295.99006187529 1560.09025201797 1299.03006187529 1562.29825201797 1302.93406187529 C 1564.50625201797 1306.83806187529 1565.61025201797 1311.25406187529 1565.61025201797 1316.18206187529 C 1565.61025201797 1321.11006187529 1564.50625201797 1325.52606187529 1562.29825201797 1329.43006187529 C 1560.09025201797 1333.33406187529 1557.03425201797 1336.39006187529 1553.13025201797 1338.59806187529 C 1549.22625201797 1340.80606187529 1544.84225201797 1341.91006187529 1539.97825201797 1341.91006187529 C 1535.11425201797 1341.91006187529 1530.73025201797 1340.80606187529 1526.82625201797 1338.59806187529 Z M 1549.62625201797 1333.41406187529 C 1552.47425201797 1331.78206187529 1554.69825201797 1329.46206187529 1556.29825201797 1326.45406187529 C 1557.89825201797 1323.44606187529 1558.69825201797 1320.02206187529 1558.69825201797 1316.18206187529 C 1558.69825201797 1312.34206187529 1557.89825201797 1308.91806187529 1556.29825201797 1305.91006187529 C 1554.69825201797 1302.90206187529 1552.47425201797 1300.58206187529 1549.62625201797 1298.95006187529 C 1546.77825201797 1297.31806187529 1543.56225201797 1296.50206187529 1539.97825201797 1296.50206187529 C 1536.39425201797 1296.50206187529 1533.17825201797 1297.31806187529 1530.33025201797 1298.95006187529 C 1527.48225201797 1300.58206187529 1525.24225201797 1302.90206187529 1523.61025201797 1305.91006187529 C 1521.97825201797 1308.91806187529 1521.16225201797 1312.34206187529 1521.16225201797 1316.18206187529 C 1521.16225201797 1320.02206187529 1521.97825201797 1323.44606187529 1523.61025201797 1326.45406187529 C 1525.24225201797 1329.46206187529 1527.48225201797 1331.78206187529 1530.33025201797 1333.41406187529 C 1533.17825201797 1335.04606187529 1536.39425201797 1335.86206187529 1539.97825201797 1335.86206187529 C 1543.56225201797 1335.86206187529 1546.77825201797 1335.04606187529 1549.62625201797 1333.41406187529 Z M 1591.19425201797 1359.71806187529 C 1589.30625201797 1359.17406187529 1587.75425201797 1358.35806187529 1586.53825201797 1357.27006187529 L 1588.93825201797 1352.08606187529 C 1590.92225201797 1353.81406187529 1593.54625201797 1354.67806187529 1596.81025201797 1354.67806187529 C 1599.49825201797 1354.67806187529 1601.56225201797 1353.87806187529 1603.00225201797 1352.27806187529 C 1604.44225201797 1350.67806187529 1605.16225201797 1348.31006187529 1605.16225201797 1345.17406187529 L 1605.16225201797 1290.93406187529 L 1611.97825201797 1290.93406187529 L 1611.97825201797 1345.17406187529 C 1611.97825201797 1349.91006187529 1610.69825201797 1353.65406187529 1608.13825201797 1356.40606187529 C 1605.57825201797 1359.15806187529 1601.93025201797 1360.53406187529 1597.19425201797 1360.53406187529 C 1595.08225201797 1360.53406187529 1593.08225201797 1360.26206187529 1591.19425201797 1359.71806187529 Z M 1605.06625201797 1278.35806187529 C 1604.10625201797 1277.39806187529 1603.62625201797 1276.24606187529 1603.62625201797 1274.90206187529 C 1603.62625201797 1273.62206187529 1604.10625201797 1272.50206187529 1605.06625201797 1271.54206187529 C 1606.02625201797 1270.58206187529 1607.21025201797 1270.10206187529 1608.61825201797 1270.10206187529 C 1610.02625201797 1270.10206187529 1611.21025201797 1270.56606187529 1612.17025201797 1271.49406187529 C 1613.13025201797 1272.42206187529 1613.61025201797 1273.52606187529 1613.61025201797 1274.80606187529 C 1613.61025201797 1276.21406187529 1613.13025201797 1277.39806187529 1612.17025201797 1278.35806187529 C 1611.21025201797 1279.31806187529 1610.02625201797 1279.79806187529 1608.61825201797 1279.79806187529 C 1607.21025201797 1279.79806187529 1606.02625201797 1279.31806187529 1605.06625201797 1278.35806187529 Z M 1676.49025201797 1290.93406187529 L 1676.49025201797 1341.43006187529 L 1669.96225201797 1341.43006187529 L 1669.96225201797 1332.21406187529 C 1668.17025201797 1335.28606187529 1665.70625201797 1337.67006187529 1662.57025201797 1339.36606187529 C 1659.43425201797 1341.06206187529 1655.85025201797 1341.91006187529 1651.81825201797 1341.91006187529 C 1645.22625201797 1341.91006187529 1640.02625201797 1340.07006187529 1636.21825201797 1336.39006187529 C 1632.41025201797 1332.71006187529 1630.50625201797 1327.31806187529 1630.50625201797 1320.21406187529 L 1630.50625201797 1290.93406187529 L 1637.32225201797 1290.93406187529 L 1637.32225201797 1319.54206187529 C 1637.32225201797 1324.85406187529 1638.63425201797 1328.88606187529 1641.25825201797 1331.63806187529 C 1643.88225201797 1334.39006187529 1647.62625201797 1335.76606187529 1652.49025201797 1335.76606187529 C 1657.80225201797 1335.76606187529 1661.99425201797 1334.15006187529 1665.06625201797 1330.91806187529 C 1668.13825201797 1327.68606187529 1669.67425201797 1323.19006187529 1669.67425201797 1317.43006187529 L 1669.67425201797 1290.93406187529 L 1676.49025201797 1290.93406187529 Z M 1697.37025201797 1340.13406187529 C 1693.62625201797 1338.95006187529 1690.69825201797 1337.46206187529 1688.58625201797 1335.67006187529 L 1691.65825201797 1330.29406187529 C 1693.77025201797 1331.95806187529 1696.42625201797 1333.31806187529 1699.62625201797 1334.37406187529 C 1702.82625201797 1335.43006187529 1706.15425201797 1335.95806187529 1709.61025201797 1335.95806187529 C 1714.21825201797 1335.95806187529 1717.62625201797 1335.23806187529 1719.83425201797 1333.79806187529 C 1722.04225201797 1332.35806187529 1723.14625201797 1330.32606187529 1723.14625201797 1327.70206187529 C 1723.14625201797 1325.84606187529 1722.53825201797 1324.39006187529 1721.32225201797 1323.33406187529 C 1720.10625201797 1322.27806187529 1718.57025201797 1321.47806187529 1716.71425201797 1320.93406187529 C 1714.85825201797 1320.39006187529 1712.39425201797 1319.86206187529 1709.32225201797 1319.35006187529 C 1705.22625201797 1318.58206187529 1701.93025201797 1317.79806187529 1699.43425201797 1316.99806187529 C 1696.93825201797 1316.19806187529 1694.81025201797 1314.83806187529 1693.05025201797 1312.91806187529 C 1691.29025201797 1310.99806187529 1690.41025201797 1308.34206187529 1690.41025201797 1304.95006187529 C 1690.41025201797 1300.72606187529 1692.17025201797 1297.27006187529 1695.69025201797 1294.58206187529 C 1699.21025201797 1291.89406187529 1704.10625201797 1290.55006187529 1710.37825201797 1290.55006187529 C 1713.64225201797 1290.55006187529 1716.90625201797 1290.98206187529 1720.17025201797 1291.84606187529 C 1723.43425201797 1292.71006187529 1726.12225201797 1293.84606187529 1728.23425201797 1295.25406187529 L 1725.25825201797 1300.72606187529 C 1721.09825201797 1297.84606187529 1716.13825201797 1296.40606187529 1710.37825201797 1296.40606187529 C 1706.02625201797 1296.40606187529 1702.74625201797 1297.17406187529 1700.53825201797 1298.71006187529 C 1698.33025201797 1300.24606187529 1697.22625201797 1302.26206187529 1697.22625201797 1304.75806187529 C 1697.22625201797 1306.67806187529 1697.85025201797 1308.21406187529 1699.09825201797 1309.36606187529 C 1700.34625201797 1310.51806187529 1701.89825201797 1311.36606187529 1703.75425201797 1311.91006187529 C 1705.61025201797 1312.45406187529 1708.17025201797 1313.01406187529 1711.43425201797 1313.59006187529 C 1715.46625201797 1314.35806187529 1718.69825201797 1315.12606187529 1721.13025201797 1315.89406187529 C 1723.56225201797 1316.66206187529 1725.64225201797 1317.97406187529 1727.37025201797 1319.83006187529 C 1729.09825201797 1321.68606187529 1729.96225201797 1324.24606187529 1729.96225201797 1327.51006187529 C 1729.96225201797 1331.92606187529 1728.12225201797 1335.43006187529 1724.44225201797 1338.02206187529 C 1720.76225201797 1340.61406187529 1715.65825201797 1341.91006187529 1709.13025201797 1341.91006187529 C 1705.03425201797 1341.91006187529 1701.11425201797 1341.31806187529 1697.37025201797 1340.13406187529 Z M 1769.13025201797 1338.35806187529 C 1767.85025201797 1339.51006187529 1766.26625201797 1340.39006187529 1764.37825201797 1340.99806187529 C 1762.49025201797 1341.60606187529 1760.52225201797 1341.91006187529 1758.47425201797 1341.91006187529 C 1753.73825201797 1341.91006187529 1750.09025201797 1340.63006187529 1747.53025201797 1338.07006187529 C 1744.97025201797 1335.51006187529 1743.69025201797 1331.89406187529 1743.69025201797 1327.22206187529 L 1743.69025201797 1296.69406187529 L 1734.66625201797 1296.69406187529 L 1734.66625201797 1290.93406187529 L 1743.69025201797 1290.93406187529 L 1743.69025201797 1279.89406187529 L 1750.50625201797 1279.89406187529 L 1750.50625201797 1290.93406187529 L 1765.86625201797 1290.93406187529 L 1765.86625201797 1296.69406187529 L 1750.50625201797 1296.69406187529 L 1750.50625201797 1326.83806187529 C 1750.50625201797 1329.84606187529 1751.25825201797 1332.13406187529 1752.76225201797 1333.70206187529 C 1754.26625201797 1335.27006187529 1756.42625201797 1336.05406187529 1759.24225201797 1336.05406187529 C 1760.65025201797 1336.05406187529 1762.01025201797 1335.83006187529 1763.32225201797 1335.38206187529 C 1764.63425201797 1334.93406187529 1765.77025201797 1334.29406187529 1766.73025201797 1333.46206187529 L 1769.13025201797 1338.35806187529 Z M 1787.17825201797 1338.59806187529 C 1783.27425201797 1336.39006187529 1780.20225201797 1333.33406187529 1777.96225201797 1329.43006187529 C 1775.72225201797 1325.52606187529 1774.60225201797 1321.11006187529 1774.60225201797 1316.18206187529 C 1774.60225201797 1311.25406187529 1775.72225201797 1306.83806187529 1777.96225201797 1302.93406187529 C 1780.20225201797 1299.03006187529 1783.27425201797 1295.99006187529 1787.17825201797 1293.81406187529 C 1791.08225201797 1291.63806187529 1795.46625201797 1290.55006187529 1800.33025201797 1290.55006187529 C 1805.19425201797 1290.55006187529 1809.57825201797 1291.63806187529 1813.48225201797 1293.81406187529 C 1817.38625201797 1295.99006187529 1820.44225201797 1299.03006187529 1822.65025201797 1302.93406187529 C 1824.85825201797 1306.83806187529 1825.96225201797 1311.25406187529 1825.96225201797 1316.18206187529 C 1825.96225201797 1321.11006187529 1824.85825201797 1325.52606187529 1822.65025201797 1329.43006187529 C 1820.44225201797 1333.33406187529 1817.38625201797 1336.39006187529 1813.48225201797 1338.59806187529 C 1809.57825201797 1340.80606187529 1805.19425201797 1341.91006187529 1800.33025201797 1341.91006187529 C 1795.46625201797 1341.91006187529 1791.08225201797 1340.80606187529 1787.17825201797 1338.59806187529 Z M 1809.97825201797 1333.41406187529 C 1812.82625201797 1331.78206187529 1815.05025201797 1329.46206187529 1816.65025201797 1326.45406187529 C 1818.25025201797 1323.44606187529 1819.05025201797 1320.02206187529 1819.05025201797 1316.18206187529 C 1819.05025201797 1312.34206187529 1818.25025201797 1308.91806187529 1816.65025201797 1305.91006187529 C 1815.05025201797 1302.90206187529 1812.82625201797 1300.58206187529 1809.97825201797 1298.95006187529 C 1807.13025201797 1297.31806187529 1803.91425201797 1296.50206187529 1800.33025201797 1296.50206187529 C 1796.74625201797 1296.50206187529 1793.53025201797 1297.31806187529 1790.68225201797 1298.95006187529 C 1787.83425201797 1300.58206187529 1785.59425201797 1302.90206187529 1783.96225201797 1305.91006187529 C 1782.33025201797 1308.91806187529 1781.51425201797 1312.34206187529 1781.51425201797 1316.18206187529 C 1781.51425201797 1320.02206187529 1782.33025201797 1323.44606187529 1783.96225201797 1326.45406187529 C 1785.59425201797 1329.46206187529 1787.83425201797 1331.78206187529 1790.68225201797 1333.41406187529 C 1793.53025201797 1335.04606187529 1796.74625201797 1335.86206187529 1800.33025201797 1335.86206187529 C 1803.91425201797 1335.86206187529 1807.13025201797 1335.04606187529 1809.97825201797 1333.41406187529 Z"/></svg>